# xmcd
# Track frame offsets:
# 150
# 9628
# 17588
# 26316
# 33551
# 42357
# 52045
# 61232
# 73725
# 83948
# 93759
# 105354
# 116514
# 126869
# 138615
# 148670
# 160189
# 173532
# 185609
# 196314
# 206154
# 216904
# 225805
# 236600
# 245942
# 256220
# 267104
# 280265
# 289460
# 301499
# 311641
#
# Disc length: 4324 seconds
# Revision: 0
# Processed by: cddbd v1.5.2PL0 Copyright (c) Steve Scherf et al.
# Submitted via: VisiTrax 2.11.3.279 - For more info visit www.synapsa.com
#
DISCID=c210e21f
DTITLE=Various (1950's-1960's) Pop and Skiffle and Rock 'n' Roll Artists - Quiff
DTITLE=s At The Flicks: Big Screen British Rock'n'Roll: CD3 of 3: *ReMastere
DTITLE=d Tracks
DYEAR=2014
DGENRE=Pop Soundtrack
TTITLE0=Billy Fury - Play It Cool*
TTITLE1=Billy Fury - You're Swell*
TTITLE2=Billy Fury - Once Upon A Dream*
TTITLE3=Billy Fury - Let's Paint The Time*
TTITLE4=Shane Fenton and The Fentones (See Alvin Stardust) - It's Gonna Take Mag
TTITLE4=ic*
TTITLE5=Shane Fenton and The Fentones (See Alvin Stardust) - Why Little Girl*
TTITLE6=Jimmy Crawford - Take It Easy*
TTITLE7=Helen Shapiro - Cry My Heart Out*
TTITLE8=Billy Fury - Twist Kid*
TTITLE9=Bobby Vee - At A Time Lilke This*
TTITLE10=Helen Shapiro - I Don't Care*
TTITLE11=Craig Douglas - A Change Of Heart*
TTITLE12=Craig Douglas - Another You*
TTITLE13=Eagles (UK) The - Johnny's Tune*
TTITLE14=Valerie Mountain - Yes You Did*
TTITLE15=Valerie Mountain - Too Late*
TTITLE16=Eagles (UK) The - Bristol Express*
TTITLE17=Valerie Mountain - Some People*
TTITLE18=Adam Faith - Mix Me A Person*
TTITLE19=John Leyton - Lonely City*
TTITLE20=Gene McDaniels - Another Tear Falls*
TTITLE21=Helen Shapiro - Let's Talk About Love*
TTITLE22=Craig Douglas - Ring-A-Ding*
TTITLE23=Gene Vincent - Spaceship To Mars*
TTITLE24=Craig Douglas - Rainbows*
TTITLE25=Chubby Checker - The Lose-Your-Inhibitions Twist*
TTITLE26=Helen Shapiro - Sometime Yesterday*
TTITLE27=Brook Brothers The - Double Trouble* (Bonus Single)
TTITLE28=Gary US Bonds - Seven Day Weekend* (Bonus Single)
TTITLE29=Del Shannon - You Never Talked About Me* (Bonus Single)
TTITLE30=Paris Sisters The - What Am I To Do*
EXTD=Compilation and ReMastering: FantasticVoyageMusic: 2014\nTracks 1-11 fro
EXTD=m "Play It Cool" (1962): Tracks 12 from "Two And Two Make Six" (1962)
EXTD=: Tracks 13 from "Murder Can Be Deadly" (1962): Tracks 14-18 from "Som
EXTD=e People" (1962): Track 19 from "Mix Me A Person" (1962): Tracks 20-2
EXTD=7 from "It's Trad Dad" (1962): 28-31 Bonus Tracks
EXTT0=
EXTT1=
EXTT2=
EXTT3=
EXTT4=
EXTT5=
EXTT6=
EXTT7=
EXTT8=
EXTT9=
EXTT10=
EXTT11=
EXTT12=
EXTT13=
EXTT14=
EXTT15=
EXTT16=
EXTT17=
EXTT18=
EXTT19=
EXTT20=
EXTT21=
EXTT22=
EXTT23=
EXTT24=
EXTT25=
EXTT26=
EXTT27=
EXTT28=
EXTT29=
EXTT30=
PLAYORDER=
